<svg version="1.1" viewBox="0.0 0.0 680.6404199475065 269.76115485564304" fill="none" stroke="none" stroke-linecap="square" stroke-miterlimit="10" xmlns:xlink="http://www.w3.org/1999/xlink" xmlns="http://www.w3.org/2000/svg"><clipPath id="p.0"><path d="m0 0l680.64044 0l0 269.76117l-680.64044 0l0 -269.76117z" clip-rule="nonzero"/></clipPath><g clip-path="url(#p.0)"><path fill="#000000" fill-opacity="0.0" d="m0 0l680.64044 0l0 269.76117l-680.64044 0z" fill-rule="evenodd"/><path fill="#000000" fill-opacity="0.0" d="m-26.057104 25.388006l722.5512 0l0 269.7638l-722.5512 0z" fill-rule="evenodd"/><path fill="#ffc800" d="m87.32375 269.5849q-40.875 0 -66.3125 -16.046875q-25.4375 -16.0625 -25.4375 -49.546875q0 -17.734375 6.703125 -27.984375q6.71875 -10.25 20.234375 -10.25q9.703123 0 16.234373 5.390625q6.546875 5.390625 6.546875 14.109375q0 6.40625 -0.890625 10.859375q0 1.09375 -0.453125 4.0625q-0.4375 2.96875 -0.4375 5.890625q0 10.484375 11.734375 16.15625q11.734375 5.671875 35.0625 5.671875q23.921875 0 36.546875 -8.015625q12.625008 -8.03125 12.625008 -21.828125q0 -8.328125 -5.65625 -14.625q-5.640625 -6.3125 -14.984383 -10.96875q-9.328125 -4.671875 -26.96875 -11.71875q-23.171875 -9.03125 -38.171875 -17.375q-14.984375 -8.359375 -25.999998 -23.187492q-11.015625 -14.84375 -11.015625 -36.890625q0 -22.859375 12.234375 -40.65625q12.234373 -17.796877 34.84375 -27.468752q22.609375 -9.671875 52.703125 -9.671875q22.500008 0 41.609383 6.7499995q19.125 6.734375 30.921875 20.953127q11.796875 14.21875 11.796875 34.921875q0 20.015625 -6.65625 31.21875q-6.640625 11.1875 -20.28125 11.1875q-9.53125 0 -16.15625 -6.046875q-6.625 -6.0625 -6.625 -14.65625q0 -6.078125 0.9375 -11.0625q0.84375 -8.5 0.84375 -10.640625q0 -9.703125 -10.453125 -15.3125q-10.453125 -5.609375 -27.421883 -5.609375q-24.109375 0 -36.046875 8.265625q-11.9375 8.25 -11.9375 22.765625q0 9.5625 6.125 16.609375q6.125 7.03125 16.03125 12.125q9.90625 5.09375 28.453125 12.4375q22.843758 9.328117 37.078133 17.078117q14.234375 7.734375 24.671875 21.53125q10.4375 13.796875 10.4375 34.09375q0 37.484375 -28.1875 57.484375q-28.1875 20.0 -74.28126 20.0zm407.7047 -77.953125q6.453125 0 9.703125 5.21875q3.265625 5.21875 3.265625 12.796875q0 13.265625 -6.6875 21.390625q-30.828125 37.65625 -66.34375 37.65625q-31.109375 0 -49.546875 -23.828125q-18.421875 -23.828125 -18.421875 -67.03125q0 -10.3125 0.375 -14.5625q-13.875 2.515625 -37.296875 4.3125q-15.515625 1.1875 -17.609375 1.296875q-5.28125 26.890625 -16.0 71.0q-7.09375 29.40625 -28.296875 29.40625q-23.671875 0 -23.671875 -21.875q0 -4.375 1.609375 -11.765625q10.09375 -40.703125 14.8125 -63.03125l-8.40625 0.34375q-11.484375 0 -17.484375 -4.59375q-5.984375 -4.609375 -5.984375 -14.625q0 -12.015625 7.09375 -17.796875q7.09375 -5.78125 21.734375 -6.46875l12.0625 -0.453125q6.96875 -37.843742 6.96875 -59.421867q0 -12.3125 -2.9375 -15.875q-2.921875 -3.5625 -7.578125 -3.5625q-18.5 0 -43.28125 32.9375q-5.265625 6.90625 -12.3125 6.90625q-6.453125 0 -10.59375 -5.390625q-4.15625 -5.40625 -4.15625 -12.9375q0 -10.703125 8.296875 -22.328125q13.671875 -18.921877 34.546875 -31.234377q20.875 -12.328125 42.65625 -12.328125q21.5625 0 33.3125 14.75q11.765625 14.734377 11.765625 44.3125q0 25.0625 -6.234375 61.96875l23.375 -1.203125q18.484375 -0.875 28.3125 -2.390625q4.875 -29.859375 16.109375 -59.03125q11.25 -29.1875 28.59375 -48.09375q17.34375 -18.921875 39.59375 -18.921875q17.21875 0 26.984375 13.3125q9.78125 13.296875 9.78125 33.84375q0 76.9375 -75.46875 105.57812q-0.65625 8.765625 -0.65625 21.375q0 29.953125 6.734375 41.359375q6.734375 11.390625 18.0625 11.390625q10.84375 0 20.0625 -5.84375q9.234375 -5.84375 21.578125 -20.765625q5.0 -5.796875 11.578125 -5.796875zm-40.140625 -159.3125q-3.9375 0 -10.40625 10.546875q-6.453125 10.546875 -12.859375 30.625q-6.390625 20.078125 -8.90625 35.953125q14.75 -6.09375 25.296875 -23.03125q10.5625 -16.953125 10.5625 -44.15625q0 -5.53125 -1.359375 -7.734375q-1.34375 -2.203125 -2.328125 -2.203125zm116.61441 237.26562q-40.875 0 -66.31247 -16.046875q-25.4375 -16.0625 -25.4375 -49.546875q0 -17.734375 6.703125 -27.984375q6.71875 -10.25 20.234375 -10.25q9.7030945 0 16.234344 5.390625q6.546875 5.390625 6.546875 14.109375q0 6.40625 -0.890625 10.859375q0 1.09375 -0.453125 4.0625q-0.4375 2.96875 -0.4375 5.890625q0 10.484375 11.734375 16.15625q11.734375 5.671875 35.0625 5.671875q23.921875 0 36.546875 -8.015625q12.625 -8.03125 12.625 -21.828125q0 -8.328125 -5.65625 -14.625q-5.640625 -6.3125 -14.984375 -10.96875q-9.328125 -4.671875 -26.96875 -11.71875q-23.171875 -9.03125 -38.171875 -17.375q-14.984375 -8.359375 -25.99997 -23.187492q-11.015625 -14.84375 -11.015625 -36.890625q0 -22.859375 12.2343445 -40.65625q12.234375 -17.796877 34.84375 -27.468752q22.609375 -9.671875 52.703125 -9.671875q22.5 0 41.609375 6.7499995q19.125 6.734375 30.921875 20.953127q11.796875 14.21875 11.796875 34.921875q0 20.015625 -6.65625 31.21875q-6.640625 11.1875 -20.28125 11.1875q-9.53125 0 -16.15625 -6.046875q-6.625 -6.0625 -6.625 -14.65625q0 -6.078125 0.9375 -11.0625q0.84375 -8.5 0.84375 -10.640625q0 -9.703125 -10.453125 -15.3125q-10.453125 -5.609375 -27.421875 -5.609375q-24.109375 0 -36.046875 8.265625q-11.9375 8.25 -11.9375 22.765625q0 9.5625 6.125 16.609375q6.125 7.03125 16.03125 12.125q9.90625 5.09375 28.453125 12.4375q22.84375 9.328117 37.078125 17.078117q14.234375 7.734375 24.671875 21.53125q10.4375 13.796875 10.4375 34.09375q0 37.484375 -28.1875 57.484375q-28.1875 20.0 -74.28125 20.0z" fill-rule="nonzero"/></g></svg>